<mxfile host="app.diagrams.net" agent="Mozilla/5.0 (Macintosh; Intel Mac OS X 10.15; rv:132.0) Gecko/20100101 Firefox/132.0" version="24.9.3">
  <diagram id="hDndAcnuadlCJL8WH_rk" name="第 1 页">
    <mxGraphModel dx="1434" dy="709" grid="1" gridSize="10" guides="1" tooltips="1" connect="1" arrows="1" fold="1" page="1" pageScale="1" pageWidth="827" pageHeight="1169" math="0" shadow="0">
      <root>
        <mxCell id="0" />
        <mxCell id="1" parent="0" />
        <mxCell id="26" value="" style="rounded=1;whiteSpace=wrap;html=1;fillColor=#f5f5f5;fontColor=#333333;strokeColor=#666666;" parent="1" vertex="1">
          <mxGeometry x="640" y="220" width="70" height="220" as="geometry" />
        </mxCell>
        <mxCell id="25" value="" style="rounded=1;whiteSpace=wrap;html=1;fillColor=#f5f5f5;fontColor=#333333;strokeColor=#666666;" parent="1" vertex="1">
          <mxGeometry x="220" y="220" width="70" height="220" as="geometry" />
        </mxCell>
        <mxCell id="24" value="" style="rounded=1;whiteSpace=wrap;html=1;" parent="1" vertex="1">
          <mxGeometry x="570" y="220" width="70" height="220" as="geometry" />
        </mxCell>
        <mxCell id="23" value="" style="rounded=1;whiteSpace=wrap;html=1;fillColor=#f5f5f5;fontColor=#333333;strokeColor=#666666;" parent="1" vertex="1">
          <mxGeometry x="430" y="220" width="140" height="220" as="geometry" />
        </mxCell>
        <mxCell id="22" value="" style="rounded=1;whiteSpace=wrap;html=1;" parent="1" vertex="1">
          <mxGeometry x="290" y="220" width="140" height="220" as="geometry" />
        </mxCell>
        <mxCell id="21" value="" style="rounded=1;whiteSpace=wrap;html=1;fillColor=#f5f5f5;fontColor=#333333;strokeColor=#666666;" parent="1" vertex="1">
          <mxGeometry x="150" y="220" width="70" height="220" as="geometry" />
        </mxCell>
        <mxCell id="2" value="QKV&lt;br&gt;Gen." style="rounded=0;whiteSpace=wrap;html=1;fillColor=#dae8fc;strokeColor=#6c8ebf;" parent="1" vertex="1">
          <mxGeometry x="150" y="80" width="70" height="60" as="geometry" />
        </mxCell>
        <mxCell id="3" value="MHA" style="rounded=0;whiteSpace=wrap;html=1;fillColor=#e1d5e7;strokeColor=#9673a6;" parent="1" vertex="1">
          <mxGeometry x="220" y="80" width="70" height="60" as="geometry" />
        </mxCell>
        <mxCell id="4" value="Proj.&lt;br&gt;&amp;amp; FFNs" style="rounded=0;whiteSpace=wrap;html=1;fillColor=#dae8fc;strokeColor=#6c8ebf;" parent="1" vertex="1">
          <mxGeometry x="290" y="80" width="70" height="60" as="geometry" />
        </mxCell>
        <mxCell id="5" value="QKV&lt;br&gt;Gen" style="rounded=0;whiteSpace=wrap;html=1;fillColor=#dae8fc;strokeColor=#6c8ebf;" parent="1" vertex="1">
          <mxGeometry x="360" y="80" width="70" height="60" as="geometry" />
        </mxCell>
        <mxCell id="7" value="MHA" style="rounded=0;whiteSpace=wrap;html=1;fillColor=#e1d5e7;strokeColor=#9673a6;" parent="1" vertex="1">
          <mxGeometry x="430" y="80" width="70" height="60" as="geometry" />
        </mxCell>
        <mxCell id="8" value="Proj.&lt;br&gt;&amp;amp; FFNs" style="rounded=0;whiteSpace=wrap;html=1;fillColor=#dae8fc;strokeColor=#6c8ebf;" parent="1" vertex="1">
          <mxGeometry x="500" y="80" width="70" height="60" as="geometry" />
        </mxCell>
        <mxCell id="9" value="QKV&lt;br&gt;Gen." style="rounded=0;whiteSpace=wrap;html=1;fillColor=#dae8fc;strokeColor=#6c8ebf;" parent="1" vertex="1">
          <mxGeometry x="150" y="240" width="70" height="60" as="geometry" />
        </mxCell>
        <mxCell id="10" value="MHA" style="rounded=0;whiteSpace=wrap;html=1;fillColor=#e1d5e7;strokeColor=#9673a6;" parent="1" vertex="1">
          <mxGeometry x="220" y="240" width="70" height="60" as="geometry" />
        </mxCell>
        <mxCell id="11" value="Proj.&lt;br&gt;&amp;amp; FFNs" style="rounded=0;whiteSpace=wrap;html=1;fillColor=#dae8fc;strokeColor=#6c8ebf;" parent="1" vertex="1">
          <mxGeometry x="290" y="240" width="70" height="60" as="geometry" />
        </mxCell>
        <mxCell id="12" value="QKV&lt;br&gt;Gen" style="rounded=0;whiteSpace=wrap;html=1;fillColor=#dae8fc;strokeColor=#6c8ebf;" parent="1" vertex="1">
          <mxGeometry x="360" y="240" width="70" height="60" as="geometry" />
        </mxCell>
        <mxCell id="13" value="MHA" style="rounded=0;whiteSpace=wrap;html=1;fillColor=#e1d5e7;strokeColor=#9673a6;" parent="1" vertex="1">
          <mxGeometry x="430" y="240" width="70" height="60" as="geometry" />
        </mxCell>
        <mxCell id="14" value="Proj.&lt;br&gt;&amp;amp; FFNs" style="rounded=0;whiteSpace=wrap;html=1;fillColor=#dae8fc;strokeColor=#6c8ebf;" parent="1" vertex="1">
          <mxGeometry x="570" y="240" width="70" height="60" as="geometry" />
        </mxCell>
        <mxCell id="15" value="QKV&lt;br&gt;Gen." style="rounded=0;whiteSpace=wrap;html=1;fillColor=#dae8fc;strokeColor=#6c8ebf;" parent="1" vertex="1">
          <mxGeometry x="220" y="330" width="70" height="60" as="geometry" />
        </mxCell>
        <mxCell id="16" value="MHA" style="rounded=0;whiteSpace=wrap;html=1;fillColor=#e1d5e7;strokeColor=#9673a6;" parent="1" vertex="1">
          <mxGeometry x="290" y="330" width="70" height="60" as="geometry" />
        </mxCell>
        <mxCell id="17" value="Proj.&lt;br&gt;&amp;amp; FFNs" style="rounded=0;whiteSpace=wrap;html=1;fillColor=#dae8fc;strokeColor=#6c8ebf;" parent="1" vertex="1">
          <mxGeometry x="430" y="330" width="70" height="60" as="geometry" />
        </mxCell>
        <mxCell id="18" value="QKV&lt;br&gt;Gen" style="rounded=0;whiteSpace=wrap;html=1;fillColor=#dae8fc;strokeColor=#6c8ebf;" parent="1" vertex="1">
          <mxGeometry x="500" y="330" width="70" height="60" as="geometry" />
        </mxCell>
        <mxCell id="19" value="MHA" style="rounded=0;whiteSpace=wrap;html=1;fillColor=#e1d5e7;strokeColor=#9673a6;" parent="1" vertex="1">
          <mxGeometry x="570" y="330" width="70" height="60" as="geometry" />
        </mxCell>
        <mxCell id="20" value="Proj.&lt;br&gt;&amp;amp; FFNs" style="rounded=0;whiteSpace=wrap;html=1;fillColor=#dae8fc;strokeColor=#6c8ebf;" parent="1" vertex="1">
          <mxGeometry x="640" y="330" width="70" height="60" as="geometry" />
        </mxCell>
        <mxCell id="27" value="(a) The serial NPU-PIM workflow" style="text;html=1;strokeColor=none;fillColor=none;align=center;verticalAlign=middle;whiteSpace=wrap;rounded=0;" parent="1" vertex="1">
          <mxGeometry x="225" y="160" width="295" height="30" as="geometry" />
        </mxCell>
        <mxCell id="28" value="(b) The Sub-batch NPU-PIM workflow" style="text;html=1;strokeColor=none;fillColor=none;align=center;verticalAlign=middle;whiteSpace=wrap;rounded=0;" parent="1" vertex="1">
          <mxGeometry x="235" y="500" width="295" height="30" as="geometry" />
        </mxCell>
        <mxCell id="29" value="Batched&lt;br&gt;Request" style="text;html=1;strokeColor=none;fillColor=none;align=center;verticalAlign=middle;whiteSpace=wrap;rounded=0;" parent="1" vertex="1">
          <mxGeometry x="70" y="95" width="60" height="30" as="geometry" />
        </mxCell>
        <mxCell id="30" value="Layer 1" style="rounded=0;whiteSpace=wrap;html=1;" parent="1" vertex="1">
          <mxGeometry x="150" y="50" width="210" height="30" as="geometry" />
        </mxCell>
        <mxCell id="31" value="Layer 2" style="rounded=0;whiteSpace=wrap;html=1;" parent="1" vertex="1">
          <mxGeometry x="360" y="50" width="210" height="30" as="geometry" />
        </mxCell>
        <mxCell id="33" value="Stage A" style="text;html=1;strokeColor=none;fillColor=none;align=center;verticalAlign=middle;whiteSpace=wrap;rounded=0;" parent="1" vertex="1">
          <mxGeometry x="155" y="400" width="60" height="30" as="geometry" />
        </mxCell>
        <mxCell id="34" value="Stage B" style="text;html=1;strokeColor=none;fillColor=none;align=center;verticalAlign=middle;whiteSpace=wrap;rounded=0;" parent="1" vertex="1">
          <mxGeometry x="225" y="400" width="60" height="30" as="geometry" />
        </mxCell>
        <mxCell id="35" value="Stage C" style="text;html=1;strokeColor=none;fillColor=none;align=center;verticalAlign=middle;whiteSpace=wrap;rounded=0;" parent="1" vertex="1">
          <mxGeometry x="330" y="400" width="60" height="30" as="geometry" />
        </mxCell>
        <mxCell id="36" value="Stage D" style="text;html=1;strokeColor=none;fillColor=none;align=center;verticalAlign=middle;whiteSpace=wrap;rounded=0;" parent="1" vertex="1">
          <mxGeometry x="470" y="400" width="60" height="30" as="geometry" />
        </mxCell>
        <mxCell id="37" value="Stage E" style="text;html=1;strokeColor=none;fillColor=none;align=center;verticalAlign=middle;whiteSpace=wrap;rounded=0;" parent="1" vertex="1">
          <mxGeometry x="575" y="400" width="60" height="30" as="geometry" />
        </mxCell>
        <mxCell id="38" value="Stage F" style="text;html=1;strokeColor=none;fillColor=none;align=center;verticalAlign=middle;whiteSpace=wrap;rounded=0;" parent="1" vertex="1">
          <mxGeometry x="645" y="400" width="60" height="30" as="geometry" />
        </mxCell>
        <mxCell id="39" value="... total N layers" style="text;html=1;strokeColor=none;fillColor=none;align=center;verticalAlign=middle;whiteSpace=wrap;rounded=0;strokeWidth=1;fontSize=14;" parent="1" vertex="1">
          <mxGeometry x="570" y="95" width="110" height="30" as="geometry" />
        </mxCell>
        <mxCell id="40" value="" style="shape=curlyBracket;whiteSpace=wrap;html=1;rounded=1;flipH=1;labelPosition=right;verticalLabelPosition=middle;align=left;verticalAlign=middle;direction=north;" parent="1" vertex="1">
          <mxGeometry x="290" y="450" width="280" height="20" as="geometry" />
        </mxCell>
        <mxCell id="42" value="Repeat N-1 Times" style="text;html=1;strokeColor=none;fillColor=none;align=center;verticalAlign=middle;whiteSpace=wrap;rounded=0;" parent="1" vertex="1">
          <mxGeometry x="390" y="470" width="120" height="30" as="geometry" />
        </mxCell>
        <mxCell id="45" value="Sub-Batch1" style="text;html=1;strokeColor=none;fillColor=none;align=center;verticalAlign=middle;whiteSpace=wrap;rounded=0;" parent="1" vertex="1">
          <mxGeometry x="60" y="255" width="70" height="30" as="geometry" />
        </mxCell>
        <mxCell id="46" value="Sub-Batch2" style="text;html=1;strokeColor=none;fillColor=none;align=center;verticalAlign=middle;whiteSpace=wrap;rounded=0;" parent="1" vertex="1">
          <mxGeometry x="60" y="345" width="70" height="30" as="geometry" />
        </mxCell>
      </root>
    </mxGraphModel>
  </diagram>
</mxfile>
